<svg id="Layer_1" data-name="Layer 1" xmlns="http://www.w3.org/2000/svg" viewBox="0 0 471.15 63.85"><defs><style>.cls-1{fill:#093451;}</style></defs><title>Benzinga Logo_pitchdeck</title><polygon class="cls-1" points="67.7 63.85 112.9 63.85 112.9 51.93 81.36 51.93 81.36 37.31 107.51 37.31 107.51 25.38 81.36 25.38 81.36 11.92 113.09 11.92 113.09 0 67.7 0 67.7 63.85"/><polygon class="cls-1" points="167.32 40.19 137.71 0 117.32 0 123.67 8.08 123.67 64.05 137.32 64.05 137.32 22.12 167.9 63.85 180.98 63.85 180.98 0 167.32 0 167.32 40.19"/><path class="cls-1" d="M47.12,31c6-1.15,11-6.73,11-14.61C58.08,7.88,51.93,0,39.62,0H0L6.15,7.88v56H41c12.32,0,18.66-7.69,18.66-17.31C59.43,38.66,54,31.93,47.12,31Zm-27.31-19H36.93c4.62,0,7.5,2.7,7.5,6.73s-2.88,6.73-7.5,6.73H19.81Zm17.69,40H19.81V37.31H37.5c5.2,0,8.08,3.27,8.08,7.31C45.58,49.23,42.5,51.93,37.5,51.93Z"/><path class="cls-1" d="M380.81,40.19h7.12V47.7a20.9,20.9,0,0,1-13.08,4.8c-11.35,0-19.42-8.65-19.42-20.38s8.07-20.39,19.42-20.39a17.53,17.53,0,0,1,14.62,8.08l10.77-6C395.63,6.54,387.54,0,374.66,0c-18.08,0-33.08,12.5-33.08,31.93s14.81,31.92,33.08,31.92a34.12,34.12,0,0,0,26.15-11.54V28.66H371.58Z"/><polygon class="cls-1" points="319.27 40.19 289.65 0 269.26 0 275.61 8.08 275.61 64.05 289.27 64.05 289.27 22.12 319.85 63.85 332.92 63.85 332.92 0 319.27 0 319.27 40.19"/><path class="cls-1" d="M446,0H419.66L426,8.08l-1.15,3.07-20.39,52.9h15.39l4-10.78H451.4l4,10.78h15.38ZM427.36,41.16l10-27.51,10,27.51h-20Z"/><rect class="cls-1" x="247.72" width="13.66" height="64.05"/><polygon class="cls-1" points="236.76 10.96 236.76 0 188.67 0 188.67 11.92 218.87 11.92 188.67 52.89 188.67 63.85 237.34 63.85 237.34 51.93 206.37 51.93 236.76 10.96"/></svg>